<svg id="logo" xmlns="http://www.w3.org/2000/svg" width="135" height="20"><path id="testtask" d="M73.25 25.818h3.37v-1.636h-8.613v1.636h3.37v10.029h1.873V25.818zm14.818 8.41h-4.609v-3.663h4.319v-1.6h-4.319v-3.171h4.609v-1.612h-6.482v11.665h6.482v-1.62zm12.02-2.92a2.924 2.924 0 00-.862-1.045 8.449 8.449 0 00-1.85-1 10.386 10.386 0 01-1.552-.758 1.936 1.936 0 01-.619-.61 1.521 1.521 0 01-.188-.778 1.334 1.334 0 01.47-1.065 2.068 2.068 0 011.379-.4 7.054 7.054 0 012.728.654l.6-1.556a7.92 7.92 0 00-3.276-.734 4.175 4.175 0 00-2.735.838 2.815 2.815 0 00-1.019 2.3 3.16 3.16 0 00.643 1.995 5.3 5.3 0 002.21 1.476 7.278 7.278 0 012.002 1.075 1.462 1.462 0 01.486 1.109 1.415 1.415 0 01-.529 1.157 2.578 2.578 0 01-1.642.431 6.944 6.944 0 01-1.642-.215 8.537 8.537 0 01-1.665-.59v1.8a7.163 7.163 0 003.182.614 4.75 4.75 0 003.049-.886 2.956 2.956 0 001.1-2.442 3.19 3.19 0 00-.27-1.371zm9.661-5.489h3.37v-1.637h-8.614v1.636h3.371v10.029h1.873V25.818zm12.294 0h3.37v-1.637H116.8v1.636h3.37v10.029h1.873V25.818zm17.436 10.029l-4.287-11.713h-2.038l-4.287 11.713h1.975l1.121-3.239h4.381l1.144 3.239h1.991zm-6.968-4.883l1.035-3.04a18.242 18.242 0 00.619-2.146q.078.319.286 1.005t.325 1.005l1.074 3.175h-3.339zm18.024.343a2.922 2.922 0 00-.862-1.045 8.461 8.461 0 00-1.85-1 10.385 10.385 0 01-1.552-.758 1.936 1.936 0 01-.619-.61 1.525 1.525 0 01-.188-.778 1.335 1.335 0 01.47-1.065 2.069 2.069 0 011.38-.4 7.054 7.054 0 012.727.654l.6-1.556a7.919 7.919 0 00-3.276-.734 4.175 4.175 0 00-2.736.838 2.815 2.815 0 00-1.019 2.3 3.163 3.163 0 00.643 1.995 5.3 5.3 0 002.21 1.476 7.277 7.277 0 012.007 1.077 1.462 1.462 0 01.486 1.109 1.417 1.417 0 01-.529 1.157 2.579 2.579 0 01-1.642.431 6.938 6.938 0 01-1.642-.215 8.551 8.551 0 01-1.666-.59v1.8a7.163 7.163 0 003.182.614 4.75 4.75 0 003.049-.886 2.956 2.956 0 001.1-2.442 3.19 3.19 0 00-.273-1.373zm10.029-2.008q1.3-1.524 4.3-5.114h-2.132l-3.1 3.726q-.761.886-1.528 1.843v-5.573h-1.873v11.665h1.873v-4.364l1.105-.918 3.6 5.282h2.171z" transform="translate(-30 -20)" fill-rule="evenodd" fill="#212529"/><path d="M37 20l-7 10 7 10h16l7-10-7-10H37z" transform="translate(-30 -20)" fill="#1b4a8a" fill-rule="evenodd"/><path d="M50 36h-2V26h-2v-2h6v2h-2v10zm-8 0h-2V26h-2v-2h6v2h-2v10z" transform="translate(-30 -20)" fill="#fff" fill-rule="evenodd"/></svg>