<svg width="429" height="362" xmlns="http://www.w3.org/2000/svg"><defs><linearGradient x1="50%" y1="99.998%" x2="50%" y2=".002%" id="linearGradient-1"><stop stop-color="#76AADB" offset="0%"/><stop stop-color="#4A72B2" offset="100%"/></linearGradient><linearGradient x1="0%" y1="49.988%" x2="100%" y2="49.988%" id="linearGradient-2"><stop stop-color="#2ACAFF" offset="0%"/><stop stop-color="#2ADFC3" offset="100%"/></linearGradient><linearGradient x1="0%" y1="-2838.695%" x2="100%" y2="-2838.695%" id="linearGradient-3"><stop stop-color="#2ACAFF" offset="0%"/><stop stop-color="#2ADFC3" offset="100%"/></linearGradient><linearGradient x1="0%" y1="50.04%" x2="99.988%" y2="50.04%" id="linearGradient-4"><stop stop-color="#FFF" offset="0%"/><stop stop-color="#F7F7F8" offset="100%"/></linearGradient><linearGradient x1="0%" y1="-2231.981%" x2="100%" y2="-2231.981%" id="linearGradient-5"><stop stop-color="#FFF" offset="0%"/><stop stop-color="#F7F7F8" offset="100%"/></linearGradient><linearGradient x1="-.001%" y1="241.327%" x2="99.986%" y2="241.327%" id="linearGradient-6"><stop stop-color="#2ACAFF" offset="0%"/><stop stop-color="#2ADFC3" offset="100%"/></linearGradient><linearGradient x1="-.009%" y1="570.503%" x2="99.996%" y2="570.503%" id="linearGradient-7"><stop stop-color="#2ACAFF" offset="0%"/><stop stop-color="#2ADFC3" offset="100%"/></linearGradient><linearGradient x1=".354%" y1="775.604%" x2="100.501%" y2="775.604%" id="linearGradient-8"><stop stop-color="#2ACAFF" offset="0%"/><stop stop-color="#2ADFC3" offset="100%"/></linearGradient></defs><g id="Page-1" stroke="none" stroke-width="1" fill="none" fill-rule="evenodd"><g id="man-laptop-v1"><path d="M117.16 302.28s-87.93-60.85 0-143.9C205.09 75.33 307.24 27 371.07 24.19c63.83-2.81 73.77 150.36 35.46 251.09-38.31 100.73-168.8 117.72-289.37 27z" id="_Path_" fill="url(#linearGradient-1)"/><path d="M312.8 202.22s41.23 50.22-9.9 82.69l-8-16.45s17.65-18.38 4.57-40.8l13.33-25.44z" id="_Path_2" fill="#FFCB9C"/><path d="M130.15 202.22s-41.23 50.22 9.9 82.69l8-16.45s-17.65-18.38-4.57-40.8l-13.33-25.44z" id="_Path_3" fill="#FFCB9C"/><path d="M322.29 212.84c-21-41.79-60.19-48-60.19-48v.26l-12.5-3.1a163.67 163.67 0 00-79.66 2.88s-38.34 10.23-54.86 54l24 13.1c-2 20.78-1.49 46.76 3.74 79 12.33-3.92 26.3 1.26 39.13 2.07 15.24 1 28.89-.62 43.9 1.6 27.27 4 55.1 2.23 82.58 4.36.38-24.55-.73-59.1-7.51-91.41l21.37-14.76z" id="_Path_4" fill="url(#linearGradient-2)"/><g id="_Group_2" transform="translate(179 53)"><path d="M88.88 56.91c-.6 14.23-4.15 27.1-25.5 36.69 0 0-11 11-7.76 26.13 3.24 15.13-38.1 14-31.93-6.92 6.17-20.92-4.07-44.92-11.57-58.58C4.62 40.57 7.74 12 25 2.78c6.77-3.64 23.63-2 34.63 3.46 18.5 9.08 30.12 30.05 29.25 50.67z" id="_Path_5" fill="#FFCB9C"/><path d="M16.38 42a13.64 13.64 0 00-11.19-2.42c-6.18 1.61-7.25 24.24 7.22 28.19 14.47 3.95 9.29-10.25 9.29-10.25L16.38 42z" id="_Path_6" fill="#FFCB9C"/><path d="M89.63 54.49c-.577.08-1.158.12-1.74.12a10 10 0 01-3.35-.54c-4.84 2.42-13.08 5.07-21.25.83-12.64-6.58-23.85-7.55-29.75-4.67-10.17 5-21.8 2.28-25.25-13.39 0 0-1.42 12.47 6.29 19 7.71 6.53 8 16.85 6.92 25.38-1.08 8.53-7.22 18 .54 28.78 7.76 10.78 20.43 0 30 2.57s30.49 5.19 34.87-12.13c4.38-17.32-1.28-23.8 0-31 1.09-6.04 3.48-9.69 2.72-14.95z" id="_Path_7" fill="#191919"/><g id="_Group_3" transform="translate(46 59)"><g id="_Group_4" fill="#CE3E3E"><path d="M13.79 4A16 16 0 007.73.83c-2.94-.55-6 0-7.27 3.64-1.27 3.64 1.9 7 5.95 10.1 2.39 1.73 11 4.9 16.23 3.46 5.23-1.44 8.05-2.87 9.7-5.94 1.65-3.07-.37-6.93-2.77-8.24a7.22 7.22 0 00-6.69.17A8.38 8.38 0 0113.79 4z" id="_Path_8"/></g><g id="_Group_5" transform="translate(2 10)" fill="#FF7D7D"><path d="M.4.9a14.68 14.68 0 019.42.15 15.91 15.91 0 019.3 7.19A24.93 24.93 0 016.77 5.9 16.75 16.75 0 01.4.9z" id="_Path_9"/></g></g><path d="M52 34.69c0 2.48-1 4.49-2.32 4.49-1.32 0-2.32-2-2.32-4.49s1-4.46 2.32-4.46c1.32 0 2.32 1.99 2.32 4.46z" id="_Path_10" fill="#191919"/><path d="M77.28 37.59c0 2.47-1 4.48-2.32 4.48-1.32 0-2.32-2-2.32-4.48 0-2.48 1-4.47 2.32-4.47 1.32 0 2.32 2.01 2.32 4.47z" id="_Path_11" fill="#191919"/><circle id="_Path_12" stroke="#1D1D1B" stroke-width="2" transform="rotate(-7 78.906 34.722)" cx="78.906" cy="34.722" r="14.27"/><path id="_Path_13" fill="#FF6252" d="M65.06 22.62l7.54 29.94-15.53-1.71z"/><path d="M61.7 32.41c0 7.881-6.389 14.27-14.27 14.27-7.881 0-14.27-6.389-14.27-14.27 0-7.881 6.389-14.27 14.27-14.27A14.27 14.27 0 0161.7 32.41z" id="_Path_14" stroke="#1D1D1B" stroke-width="2"/><path d="M68.22 25.26h-8.55" id="_Path_15" stroke="#1D1D1B" stroke-width="2"/><path d="M33.61 28.55l-26.6 8.29" id="_Path_16" stroke="#1D1D1B" stroke-width="2"/><path d="M21.4 58.64a6.93 6.93 0 11-13.86.02 6.93 6.93 0 0113.86-.02z" id="_Path_17" fill="#191919"/><path d="M23.76 66.81a6 6 0 11-12 0 6 6 0 0112 0z" id="_Path_18" fill="#191919"/><path d="M25.85 76.29a8.11 8.11 0 11-8.1-8.11 8.1 8.1 0 018.1 8.11z" id="_Path_19" fill="#191919"/><path d="M25.85 89.41a8.11 8.11 0 11-16.22.02 8.11 8.11 0 0116.22-.02z" id="_Path_20" fill="#191919"/><path d="M29.5 103.82a8.1 8.1 0 11-8.12-8.09 8.08 8.08 0 018.1 8.07l.02.02z" id="_Path_21" fill="#191919"/><path d="M38.8 112.72a8.1 8.1 0 11-8.1-8.1 8.09 8.09 0 018.1 8.1z" id="_Path_22" fill="#191919"/><path d="M54.27 111.91a8.06 8.06 0 110-.07v.07z" id="_Path_23" fill="#191919"/><path d="M69.52 114.85a8.11 8.11 0 11-8.1-8.1 8.1 8.1 0 018.1 8.1z" id="_Path_24" fill="#191919"/><path d="M84.83 110.09a8.11 8.11 0 11-8.21-8h.11a8.1 8.1 0 018.1 8z" id="_Path_25" fill="#191919"/><circle id="_Path_26" fill="#191919" cx="84.17" cy="98.66" r="8.1"/><path d="M97 84.39a8.11 8.11 0 11-8.1-8.1 8.09 8.09 0 018.09 8.08l.01.02z" id="_Path_27" fill="#191919"/><path d="M95.93 70.54a8.11 8.11 0 11-16.22 0 8.11 8.11 0 0116.22 0z" id="_Path_28" fill="#191919"/><path d="M96.33 60.74a8.12 8.12 0 11-8.66-7.55h.57a7.83 7.83 0 018.09 7.56v-.01z" id="_Path_29" fill="#191919"/></g><g id="_Group_6" transform="translate(134 180)"><rect id="_Path_30" fill="#AFAFAF" x="2.85" y="118.47" width="177.32" height="8.26" rx="3.84"/><rect id="_Path_31" fill="#D8D8D8" x=".51" y=".77" width="182.05" height="122.32" rx="12.48"/><path d="M103.23 61.93a11.81 11.81 0 11-11.82-11.79 11.79 11.79 0 0111.82 11.79z" id="_Path_32" fill="#FFF"/><path d="M3.94 4.14l176.3 114.29a13.11 13.11 0 002.27-5.83V11.85a12.9 12.9 0 00-2.72-6.93 11.59 11.59 0 00-7.33-4 22.79 22.79 0 00-2.61-.11H12.08a12.17 12.17 0 00-6 1.73 23 23 0 00-2.14 1.6z" id="_Path_33" fill="#F5F5F5" opacity=".57"/></g><path d="M300.61 331.85a148.93 148.93 0 01-9.61 28.87s-40.95 5.75-97.3-15.28c0 0-26.32-11.41-29.91-13.59h136.82z" id="_Path_34" fill="#191919"/><path d="M305.8 331.85l-.74 5.77a3.32 3.32 0 01-3.69 2.88h-.14c-9.75-1.74-39-5.81-67.29-.85-34.63 6.06-52.52.86-52.52.86s-12.59-5.95-17.63-8.66H305.8z" id="_Path_35" fill="url(#linearGradient-3)"/><g id="_Clip_Group_2" transform="translate(123 306)"><g id="Group"><path d="M.174.71H242c0 6.942-5.628 12.57-12.57 12.57H18.83A349.763 349.763 0 01.173.71z" id="Combined-Shape" fill="url(#linearGradient-4)"/><path d="M18.83 13.28h194.55c0 6.942-5.628 12.57-12.57 12.57H40.69a322.64 322.64 0 01-21.86-12.57z" id="Combined-Shape" fill="url(#linearGradient-5)"/></g></g><g id="_Group_7" transform="translate(305 48)" stroke="#141414"><circle id="_Path_38" stroke-width="3" fill="#FFF" cx="48" cy="47.26" r="47.17"/><path id="_Path_39" fill="#FFF" stroke-linecap="round" stroke-linejoin="round" d="M47.97 17.17v30.09h23.55"/><path d="M47.97 5.34v4.03" id="_Path_40" stroke-linecap="round" stroke-linejoin="round"/><path d="M62.22 7.83l-1.36 3.79" id="_Path_41" stroke-linecap="round" stroke-linejoin="round"/><path d="M74.8 15.04l-2.6 3.09" id="_Path_42" stroke-linecap="round" stroke-linejoin="round"/><path d="M84.15 26.07l-3.48 2.04" id="_Path_43" stroke-linecap="round" stroke-linejoin="round"/><path d="M89.2 39.62l-3.98.75" id="_Path_44" stroke-linecap="round" stroke-linejoin="round"/><path d="M89.34 54.1l-4-.66" id="_Path_45" stroke-linecap="round" stroke-linejoin="round"/><path d="M84.55 67.76l-3.54-1.97" id="_Path_46" stroke-linecap="round" stroke-linejoin="round"/><path d="M75.39 78.97l-2.64-3.05" id="_Path_47" stroke-linecap="round" stroke-linejoin="round"/><path d="M62.97 86.4l-1.44-3.78" id="_Path_48" stroke-linecap="round" stroke-linejoin="round"/><path d="M48.77 89.17l-.09-4.04" id="_Path_49" stroke-linecap="round" stroke-linejoin="round"/><path d="M34.47 86.93l1.3-3.82" id="_Path_50" stroke-linecap="round" stroke-linejoin="round"/><path d="M21.77 79.97l2.53-3.15" id="_Path_51" stroke-linecap="round" stroke-linejoin="round"/><path d="M12.22 69.11L15.66 67" id="_Path_52" stroke-linecap="round" stroke-linejoin="round"/><path d="M6.9 55.64l3.97-.79" id="_Path_53" stroke-linecap="round" stroke-linejoin="round"/><path d="M6.5 41.18l4 .59" id="_Path_54" stroke-linecap="round" stroke-linejoin="round"/><path d="M11.04 27.43l3.57 1.91" id="_Path_55" stroke-linecap="round" stroke-linejoin="round"/><path d="M19.97 16.06l2.7 3.01" id="_Path_56" stroke-linecap="round" stroke-linejoin="round"/><path d="M32.25 8.39l1.52 3.75" id="_Path_57" stroke-linecap="round" stroke-linejoin="round"/></g><g id="_Group_8"><path d="M75.6 17.08a15.12 15.12 0 01-14.23-6.17C58.48 7 52.61 1.94 43.39 7c-13.85 7.58-16.08 15.57-29.93 18.3C-.39 28.03-3.69 38.71 4.21 46.76c7.9 8.05 9.25 17 5.19 24.12-4.06 7.12-6.27 25.47 7.92 26.8 14.19 1.33 22.51-1.33 26.52 9.84 4.01 11.17 20 25.06 39.5 13.4 19.5-11.66 38.93-.46 46.32-1.83A15.2 15.2 0 00142 101.47c0-.32-.12-.63-.19-1-2-10.13 1.35-20.26 8.77-25 0 0 9.13-2.59 11.35-14.11 2.22-11.52.34-24-16.82-29.82s-12.4-19-27.51-26.7c-15.11-7.7-26-2.42-30.22 2.56-3.38 3.96-5.99 8.83-11.78 9.68z" id="_Path_58" fill="url(#linearGradient-6)"/><path d="M130.72 122a10.38 10.38 0 01-9.09 7.13c-7.34.71-6.65 10.86 2.44 9.46 9.09-1.4 11.55 1.05 14.53 1.4 2.98.35 7.51-.54 7.88-6 .37-5.46-4.21-5.07-7.36-5.19-3.15-.12-.17-5.94-2.1-7.69a4.17 4.17 0 00-5.89.31 4.26 4.26 0 00-.41.58z" id="_Path_59" fill="url(#linearGradient-7)"/><path d="M152.05 147.94a4.21 4.21 0 00-6.59 3.68v.44c.17 5.19 4.53 3.15 6.7 3.46 2.17.31 3.27-2.15 3.27-4.22s-1.77-1.81-3.05-3.14l-.33-.22z" id="_Path_60" fill="url(#linearGradient-8)"/></g><g id="_Group_9" transform="translate(46 25)" fill="#FFF" fill-rule="nonzero"><path d="M38.11 64.89l4.64-.19-.32-7.44-4.84.22a16.49 16.49 0 00-2.31-4.73l3.22-3.36-5.36-5.19-3.36 3.46a16.81 16.81 0 00-4.94-1.83v-4.56h-7.45v4.87a16.48 16.48 0 00-5.76 2.75l-3.46-3.31L3.09 51l3.74 3.46a17.2 17.2 0 00-1.89 6.69l-4.6.6.95 7.38 4.81-.62a16.77 16.77 0 002.71 4.52l-2.93 3.61 5.8 4.66 2.93-3.77a16.21 16.21 0 005.07 1.4l.4 4.62 7.41-.64-.36-4.81a16.81 16.81 0 004.6-2.49l3.47 3.06 4.91-5.59-3.65-3.21a16.73 16.73 0 001.65-4.98zm-16.72 3.64a6.93 6.93 0 116.93-6.93 6.92 6.92 0 01-6.93 6.93z" id="_Compound_Path_"/><path d="M80.58 44.62l4.66-.2-.31-7.42-4.85.22a16.54 16.54 0 00-2.3-4.72L81 29.12l-5.39-5.2-3.34 3.47a16.73 16.73 0 00-4.94-1.84V21h-7.44v4.86a16.46 16.46 0 00-5.77 2.76l-3.46-3.31-5.06 5.45 3.74 3.47a16.6 16.6 0 00-1.88 6.68l-4.63.61 1 7.37 4.82-.62a16.67 16.67 0 002.68 4.52l-2.91 3.62 5.8 4.66 3-3.71a16.22 16.22 0 005.06 1.4l.4 4.63 7.41-.71-.43-4.84a16.66 16.66 0 004.62-2.49l3.46 3.07 4.92-5.6-3.65-3.2a16.41 16.41 0 001.57-5zm-16.69 3.63a6.93 6.93 0 116.93-6.92 6.92 6.92 0 01-6.93 6.92z" id="_Compound_Path_2"/><path d="M42.19 22.73l4.63-.64-1-7.38-4.8.68a16.83 16.83 0 00-2.75-4.47l2.87-3.66-5.85-4.6-3 3.83a16.9 16.9 0 00-5.09-1.36l-.43-4.6-7.41.73.48 4.83a16.47 16.47 0 00-5.49 3.3l-3.84-2.94L6 12.34l4 3.1a16.55 16.55 0 00-1.23 6.92l-4.57 1L6 30.61l4.73-1.09a16.59 16.59 0 003.13 4.22l-2.55 3.9 6.19 4.14 2.66-4.07a16.43 16.43 0 005.2.9l.85 4.57 7.29-1.4-.94-4.78a16.63 16.63 0 004.35-2.93l3.79 2.7 4.33-6-4-2.81a16 16 0 001.16-5.23zm-16.26 5.19a6.93 6.93 0 116.18-7.6v.07a6.91 6.91 0 01-6.18 7.53z" id="_Compound_Path_3"/></g></g></g></svg>